<svg xmlns="http://www.w3.org/2000/svg" viewBox="0 0 720 200">
  <defs>
    <marker id="arw269" markerWidth="8" markerHeight="8" refX="7" refY="4" orient="auto">
      <path d="M0,0 L8,4 L0,8 z" fill="#0b8ad4"/>
    </marker>
  </defs>
  <text x="360" y="18" font-size="13" text-anchor="middle" fill="#1a1a1a" font-weight="700">Python 기반의 웹 크롤링 프레임워크</text>

  <circle cx="90" cy="100" r="38" fill="#e8f4fc" stroke="#0b8ad4" stroke-width="2.5"/>
  <text x="90" y="112" font-size="30" text-anchor="middle">🐍</text>
  <text x="90" y="152" font-size="11" font-weight="700" text-anchor="middle" fill="#1a1a1a">Python</text>

  <path d="M132 100 h50" stroke="#0b8ad4" stroke-width="3" marker-end="url(#arw269)"/>

  <rect x="188" y="66" width="120" height="68" rx="10" fill="#fff3d6" stroke="#e8b33a" stroke-width="2.5"/>
  <text x="248" y="106" font-size="30" text-anchor="middle">🕷️</text>
  <text x="248" y="152" font-size="11" font-weight="700" text-anchor="middle" fill="#1a1a1a">Scrapy</text>

  <path d="M312 100 h44" stroke="#0b8ad4" stroke-width="3" marker-end="url(#arw269)"/>

  <rect x="364" y="60" width="60" height="44" rx="6" fill="#eef1f4" stroke="#9aa4ae" stroke-width="1.5"/>
  <text x="394" y="88" font-size="20" text-anchor="middle">🌐</text>
  <rect x="364" y="112" width="60" height="44" rx="6" fill="#eef1f4" stroke="#9aa4ae" stroke-width="1.5"/>
  <text x="394" y="140" font-size="20" text-anchor="middle">🌐</text>
  <rect x="430" y="86" width="60" height="44" rx="6" fill="#eef1f4" stroke="#9aa4ae" stroke-width="1.5"/>
  <text x="460" y="114" font-size="20" text-anchor="middle">🌐</text>
  <text x="426" y="152" font-size="11" font-weight="700" text-anchor="middle" fill="#1a1a1a">대규모 웹페이지</text>

  <path d="M498 100 h44" stroke="#0b8ad4" stroke-width="3" marker-end="url(#arw269)"/>

  <rect x="548" y="66" width="120" height="68" rx="10" fill="#e8f4fc" stroke="#0b8ad4" stroke-width="2.5"/>
  <text x="608" y="106" font-size="30" text-anchor="middle">🗂️</text>
  <text x="608" y="152" font-size="11" font-weight="700" text-anchor="middle" fill="#1a1a1a">수집 데이터</text>

  <text x="360" y="186" font-size="11.5" text-anchor="middle" fill="#9aa4ae">코드 재사용성↑ · 대규모 크롤링 프로젝트에 적합</text>
</svg>
